<?xml version="1.0" encoding="utf-8"?>
<!-- Generator: Adobe Illustrator 19.2.1, SVG Export Plug-In . SVG Version: 6.00 Build 0)  -->
<svg version="1.1" id="Слой_1" xmlns="http://www.w3.org/2000/svg" xmlns:xlink="http://www.w3.org/1999/xlink" x="0px" y="0px"
	 viewBox="0 0 322.7 326" style="enable-background:new 0 0 322.7 326;" xml:space="preserve">
<style type="text/css">
	.st0{fill:#FFFFFF;stroke:#FFFFFF;stroke-width:4;stroke-miterlimit:10;}
	.st1{fill:#3F63A8;stroke:#FFFFFF;stroke-width:4;stroke-miterlimit:10;}
	.st2{fill:#76C7EC;stroke:#FFFFFF;stroke-width:4;stroke-miterlimit:10;}
	.st3{fill:none;}
	.st4{fill:#FFFFFF;}
	.st5{font-family:'Bankir-Retro';}
	.st6{font-size:25px;}
	.st7{fill:none;stroke:#FFFFFF;stroke-width:0.5;stroke-miterlimit:10;}
</style>
<g>
	<rect x="315.7" y="6.7" class="st0" width="3.5" height="312.5"/>
	<polygon class="st1" points="39.3,30.3 64.7,104.3 78.7,50 87.3,83.7 94.7,66.7 115.3,77.2 130.7,21 140,101.7 148,55.7 
		162.9,67.3 162.9,6.7 6.7,6.7 6.7,63.7 20.7,69.7 	"/>
	<polygon class="st1" points="23.3,142.3 30,202.3 36.7,162.9 47.3,182.7 59.3,147.7 76,215.7 91,109.7 101.3,182.7 111.3,153.7 
		122.3,198.3 130,162.9 139.3,191 144,180.6 162.9,180.6 162.9,67.3 148,55.7 140,101.7 130.7,21 115.3,77.2 94.7,66.7 87.3,83.7 
		78.7,50 64.7,104.3 39.3,30.3 20.7,69.7 6.7,63.7 6.7,173 13.7,192.3 	"/>
	<polygon class="st1" points="26.7,290.3 39.3,252.3 46,291.7 56.7,271.3 67.7,307 75.3,257.7 83,289.2 91,273.4 106.3,312.3 
		122.3,225.7 131.3,292.9 138.7,260.6 144,289.2 155.5,225 162.9,292.9 162.9,180.6 144,180.6 139.3,191 130,162.9 122.3,198.3 
		111.3,153.7 101.3,182.7 91,109.7 76,215.7 59.3,147.7 47.3,182.7 36.7,162.9 30,202.3 23.3,142.3 13.7,192.3 6.7,173 6.7,297 
		18.5,269.7 	"/>
	<polygon class="st1" points="155.5,225 144,289.2 138.7,260.6 131.3,292.9 122.3,225.7 106.3,312.3 91,273.4 83,289.2 75.3,257.7 
		67.7,307 56.7,271.3 46,291.7 39.3,252.3 26.7,290.3 18.5,269.7 6.7,297 6.7,319.2 162.9,319.2 162.9,292.9 	"/>
	<polygon class="st2" points="162.9,6.7 162.9,67.3 162.9,180.6 162.9,292.9 162.9,319.2 315.7,319.2 315.7,6.7 	"/>
</g>
<rect x="171.3" y="51" class="st3" width="139.3" height="32.7"/>
<text transform="matrix(1 0 0 1 171.3332 71.05)" class="st4 st5 st6">0 1 0 0 1 0 0 1</text>
<rect x="171.1" y="46.4" class="st3" width="133.3" height="34.6"/>
<text transform="matrix(1 0 0 1 171.0832 70.8)" class="st7 st5 st6">0 1 0 0 1 0 0 1</text>
<rect x="169" y="164.3" class="st3" width="157.7" height="34.5"/>
<text transform="matrix(1 0 0 1 169.0003 184.3416)" class="st4 st5 st6">1 1 1 1 1 0 0 0</text>
<rect x="168.8" y="159.7" class="st3" width="133.3" height="34.6"/>
<text transform="matrix(1 0 0 1 168.7503 184.0916)" class="st7 st5 st6">1 1 1 1 1 0 0 0</text>
<rect x="170.4" y="263.6" class="st3" width="139.3" height="32.7"/>
<text transform="matrix(1 0 0 1 170.3748 283.675)" class="st4 st5 st6">0 0 0 0 1 1 1 1</text>
<rect x="170.1" y="259" class="st3" width="133.3" height="34.6"/>
<text transform="matrix(1 0 0 1 170.1248 283.425)" class="st7 st5 st6">0 0 0 0 1 1 1 1</text>
</svg>
