<?xml version="1.0" encoding="utf-8"?>
<!-- Generator: Adobe Illustrator 19.2.1, SVG Export Plug-In . SVG Version: 6.00 Build 0)  -->
<svg version="1.1" id="Слой_1" xmlns="http://www.w3.org/2000/svg" xmlns:xlink="http://www.w3.org/1999/xlink" x="0px" y="0px"
	 viewBox="0 0 178.5 176.5" style="enable-background:new 0 0 178.5 176.5;" xml:space="preserve">
<style type="text/css">
	.st0{fill:#6FC6D8;}
	.st1{fill:#6DB97D;}
	.st2{fill:#6FB121;}
	.st3{fill:#A0C204;}
	.st4{fill:#FECC0B;}
	.st5{fill:#EA661E;}
	.st6{fill:#E42322;}
	.st7{fill:#FFFFFF;}
	.st8{fill:none;stroke:#FFFFFF;stroke-width:14;stroke-miterlimit:10;}
</style>
<g>
	<path class="st0" d="M168.9,157.6v11.6h-12.3c-3.2,2.6-6.7,5-10.2,7.3h32.1v-31.3C175.6,149.6,172.4,153.7,168.9,157.6z"/>
	<path class="st0" d="M8.9,9.2h7.8c5.7-3,11.5-6,17.3-9.2H0v18.2c2.9-1.6,5.9-3.3,8.9-4.9V9.2z"/>
	<path class="st0" d="M178.5,0h-5c1.8,2.7,3.4,5.4,5,8.3V0z"/>
	<path class="st0" d="M160.2,166.2h4.8l-1.5-3C162.4,164.2,161.3,165.2,160.2,166.2z"/>
	<path class="st0" d="M165.9,161.2v-0.4c0,0-0.1,0.1-0.1,0.1L165.9,161.2z"/>
	<path class="st0" d="M0,176.5h9c-3.1-1.8-6.1-3.7-9-5.7V176.5z"/>
	<path class="st0" d="M178.5,176.5v1c0.3-0.3,0.7-0.7,1-1H178.5z"/>
	<path class="st1" d="M165.9,130.1v-4c-0.6,0.9-1.2,1.9-1.8,2.8L165.9,130.1z"/>
	<path class="st1" d="M155.4,139.9l10.4,21.1c0,0,0.1-0.1,0.1-0.1v-27l-3.5-2.5C160.3,134.3,157.9,137.1,155.4,139.9z"/>
	<path class="st1" d="M11.9,13.7v17.8c4.1-2.6,8.5-5.2,13-7.8L11.9,13.7z"/>
	<path class="st1" d="M8.9,33.4V13.3c-3,1.6-6,3.2-8.9,4.9v21.5C2.8,37.5,5.8,35.4,8.9,33.4z"/>
	<path class="st1" d="M11.9,161.7v3l2.2-1.7C13.3,162.6,12.6,162.1,11.9,161.7z"/>
	<path class="st1" d="M165.9,27.2V14.8l-3.8,4.5C163.5,21.8,164.7,24.5,165.9,27.2z"/>
	<path class="st1" d="M108.4,169.2C98,172.7,86.8,175,75.3,176c-17.5,1.5-34.1-1-48.6-6.8H8.9v-9.5c-3.1-2.1-6.1-4.4-8.9-6.9v18
		c2.9,2,5.9,3.9,9,5.7h137.5c3.6-2.2,7-4.7,10.2-7.3H108.4z"/>
	<path class="st1" d="M14.9,166.2H20c-1-0.5-2-1-3-1.6L14.9,166.2z"/>
	<path class="st1" d="M164.2,12.2h-6.1c0.9,1.4,1.7,2.8,2.5,4.3L164.2,12.2z"/>
	<path class="st1" d="M116.4,166.2h3.9l-0.7-1.4C118.6,165.3,117.5,165.8,116.4,166.2z"/>
	<path class="st1" d="M49.4,9.2c4.6-2.9,9.3-5.9,14-9.2H33.9c-5.8,3.2-11.7,6.2-17.3,9.2H49.4z"/>
	<path class="st1" d="M153.2,142.2c-7.5,7.6-16.5,14-26.6,19.3l-1.7,4.8h35.2c1.1-1,2.2-2,3.3-3L153.2,142.2z"/>
	<path class="st1" d="M44.4,12.2H14.8L27.7,22C33.1,18.8,38.7,15.6,44.4,12.2z"/>
	<path class="st1" d="M156.1,9.2h12.8v25.6c5.1,14.3,8.3,30.8,8.6,48.7c0.3,13.6-2.8,26.1-8.6,37.3v36.8c3.5-3.9,6.7-8,9.6-12.4V8.3
		c-1.6-2.9-3.3-5.7-5-8.3h-24.4C151.6,2.8,153.9,5.9,156.1,9.2z"/>
	<path class="st1" d="M122.6,164l0.2-0.6c-0.1,0.1-0.3,0.1-0.4,0.2L122.6,164z"/>
	<path class="st2" d="M151.6,104.3l12.8-11.6L155,85c0,0.2,0,0.4,0,0.5C154.8,92.1,153.6,98.4,151.6,104.3z"/>
	<path class="st2" d="M110.5,147.9c-8.3,3.9-17.5,6.8-27.3,8.4l-8.2,9.8h41.3c1.1-0.4,2.2-0.9,3.2-1.4L110.5,147.9z"/>
	<path class="st2" d="M113.2,146.6l9.1,16.9c0.1-0.1,0.3-0.1,0.4-0.2l10.8-31C127.8,137.9,120.9,142.7,113.2,146.6z"/>
	<path class="st2" d="M155.1,81.2l10.8,8.9V53.6L154.3,62C154.9,68,155.2,74.4,155.1,81.2z"/>
	<path class="st2" d="M42.6,33.4c10.4-5.7,21.4-11.8,31.9-19.8c0.6-0.5,1.3-0.9,1.9-1.4h-32c-5.7,3.4-11.3,6.7-16.8,9.8L42.6,33.4z"
		/>
	<path class="st2" d="M155.4,139.9c2.5-2.7,4.9-5.6,7-8.5l-17.1-12.1L155.4,139.9z"/>
	<path class="st2" d="M160.6,16.5c-0.8-1.5-1.7-2.9-2.5-4.3h-22.6c4.8,5.2,8.9,11.9,12.1,20L160.6,16.5z"/>
	<path class="st2" d="M33.4,152.2l-16.5,12.4c1,0.5,2,1.1,3,1.6h48.4l-8.1-8.3C50.5,157.4,41.5,155.4,33.4,152.2z"/>
	<path class="st2" d="M148.7,35.4c0.4,1.1,0.8,2.3,1.1,3.4l16,9.2V27.2c-1.2-2.7-2.4-5.4-3.8-7.9L148.7,35.4z"/>
	<path class="st2" d="M138.7,127l-12,34.4c10-5.2,19-11.7,26.6-19.3L143,121.4C141.7,123.3,140.2,125.2,138.7,127z"/>
	<path class="st2" d="M30.2,150.8c-7-3.2-13.2-7.4-18.4-12.4v23.2c0.7,0.5,1.5,0.9,2.2,1.3L30.2,150.8z"/>
	<path class="st2" d="M64.6,158l7.2,7.5l7-8.4c-1.4,0.2-2.8,0.3-4.3,0.5C71.1,157.9,67.8,158,64.6,158z"/>
	<path class="st2" d="M24.9,23.6c-4.5,2.6-8.9,5.2-13,7.8v21.4c7.8-6.7,17.4-12.1,27.8-17.9L24.9,23.6z"/>
	<path class="st2" d="M177.5,83.5c-0.4-17.9-3.5-34.4-8.6-48.7v86C174.7,109.6,177.8,97.1,177.5,83.5z"/>
	<path class="st2" d="M149.2,110.6c-0.9,1.9-1.8,3.8-2.9,5.7l17.9,12.6c0.6-0.9,1.2-1.8,1.8-2.8V95.4L149.2,110.6z"/>
	<path class="st2" d="M132.4,9.2h23.7c-2.2-3.3-4.6-6.3-7-9.2h-40.4C117.6,0,125.6,3.2,132.4,9.2z"/>
	<path class="st2" d="M75.3,176c11.5-1,22.7-3.3,33.1-6.8H26.7C41.2,175,57.7,177.6,75.3,176z"/>
	<path class="st2" d="M108.7,0H63.3c-4.7,3.3-9.3,6.3-14,9.2h31.5C90.7,2.9,100.1,0,108.7,0z"/>
	<path class="st2" d="M164.7,50.8L151,42.9c1.3,4.9,2.2,10.1,2.9,15.6L164.7,50.8z"/>
	<path class="st2" d="M0,122.5v30.3c2.8,2.5,5.8,4.8,8.9,6.9v-24.4C5.4,131.5,2.4,127.2,0,122.5z"/>
	<path class="st2" d="M8.9,55.6V33.4c-3.1,2-6.1,4.1-8.9,6.2v27.3C2.4,62.7,5.4,59,8.9,55.6z"/>
	<path class="st3" d="M155.1,81.2c0.1-6.8-0.2-13.2-0.8-19.2l-12,8.7L155.1,81.2z"/>
	<path class="st3" d="M105,131.3l8.3,15.3c7.7-3.9,14.5-8.7,20.4-14.3l5.2-15L105,131.3z"/>
	<path class="st3" d="M13.4,74l4.9,2.3c1.4-3.4,3.3-6.4,5.5-9.2L13.4,74z"/>
	<path class="st3" d="M138.7,127c1.6-1.8,3-3.7,4.4-5.6l-1.4-2.9L138.7,127z"/>
	<path class="st3" d="M0,66.9v55.5c2.4,4.7,5.4,9,8.9,12.9V55.6C5.4,59,2.4,62.7,0,66.9z"/>
	<path class="st3" d="M103.8,128.1l0.1,0.4l34.4-14.2l-10.2-7.5C122,115.3,113.6,122.6,103.8,128.1z"/>
	<path class="st3" d="M129.8,104.3l10,7.3l-1.2-34.7c-0.1,1.3-0.2,2.7-0.3,4C137.4,89.3,134.4,97.2,129.8,104.3z"/>
	<path class="st3" d="M75,34c8.3-4.9,15.8-7.9,22.4-9.2L83.5,12.8L59.1,42l3.3-0.9C66.5,38.9,70.7,36.6,75,34z"/>
	<path class="st3" d="M142.8,112.3l8.8-8c2-5.9,3.1-12.2,3.4-18.8c0-0.2,0-0.4,0-0.5l-13.5-11.1L142.8,112.3z"/>
	<path class="st3" d="M108.7,0c-8.6,0-18,2.9-27.9,9.2h51.6C125.6,3.2,117.6,0,108.7,0z"/>
	<path class="st3" d="M146.3,116.3c1.1-1.8,2-3.7,2.9-5.7l-4.8,4.4L146.3,116.3z"/>
	<path class="st3" d="M89.2,134.6c-4.6,1.5-9.3,2.7-14.2,3.5c-3.6,0.6-7.1,0.9-10.5,1l-15.6,2.8L64.6,158c3.3,0,6.6-0.1,10-0.4
		c1.4-0.1,2.9-0.3,4.3-0.5l20.3-24.3L89.2,134.6z"/>
	<path class="st3" d="M138.9,67.1l4.3-28.2l-14.1-2.6c5.8,7.9,8.9,18.8,9.6,30.4L138.9,67.1z"/>
	<path class="st3" d="M33.4,152.2c8.1,3.2,17.1,5.2,26.8,5.7l-14.5-15L33.4,152.2z"/>
	<path class="st3" d="M141.9,67.3l12.1-8.7c-0.7-5.6-1.7-10.8-2.9-15.6l-5-2.9L141.9,67.3z"/>
	<path class="st3" d="M149.9,38.8c-0.4-1.2-0.7-2.3-1.1-3.4l-1.6,1.9L149.9,38.8z"/>
	<path class="st3" d="M48.4,138.9l3.5-0.6c-1-0.2-2-0.3-3-0.5L48.4,138.9z"/>
	<path class="st3" d="M15.5,86c0.4-2.5,1-4.7,1.7-6.9l-5.4-2.5v46.1l8.3-4.1C15.2,110.2,13.3,99.3,15.5,86z"/>
	<path class="st3" d="M83.3,156.4c9.8-1.7,18.9-4.5,27.3-8.4l-7.9-14.7L83.3,156.4z"/>
	<path class="st3" d="M109.8,24.4l10.8-12.3H87.4l14,12.2C104.4,24,107.2,24.1,109.8,24.4z"/>
	<path class="st3" d="M21.8,121.2l-7.9,3.9l31.2,13.8l0.8-1.9C35.7,134.4,27.3,129,21.8,121.2z"/>
	<path class="st3" d="M141.3,35.5L123.8,13l-10.6,12.1c5,1.4,9.3,4,12.8,7.6L141.3,35.5z"/>
	<path class="st3" d="M144.9,35.3l2.6-3.2c-3.2-8.1-7.2-14.8-12.1-20h-8.6L144.9,35.3z"/>
	<path class="st3" d="M52.3,44.6L39.7,35c-10.4,5.7-20.1,11.2-27.8,17.9v18.6L52.3,44.6z"/>
	<path class="st3" d="M42.9,141.2l-31.1-13.8v11c5.2,5,11.4,9.2,18.4,12.4L42.9,141.2z"/>
	<path class="st3" d="M42.6,33.4l12.1,9.2l25.5-30.4h-3.8c-0.6,0.5-1.3,0.9-1.9,1.4C63.9,21.6,52.9,27.7,42.6,33.4z"/>
	<path class="st4" d="M109.8,24.4c-2.6-0.4-5.4-0.4-8.5-0.1l4.9,4.2L109.8,24.4z"/>
	<path class="st4" d="M138.6,66.8c-0.7-11.7-3.8-22.6-9.6-30.4l-18.9-3.4L138.6,66.8z"/>
	<path class="st4" d="M62.4,41.1l40.9-11.1l-5.8-5.1C90.8,26.2,83.4,29.1,75,34C70.7,36.6,66.5,38.9,62.4,41.1z"/>
	<path class="st4" d="M126,32.7c-3.5-3.6-7.8-6.2-12.8-7.6l-4,4.5L126,32.7z"/>
	<path class="st4" d="M79.2,121.7c-8.5,2.7-16.7,2.8-23.8,0.7l-6.6,15.4c1,0.2,2,0.4,3,0.5l47.5-8.6l-13.3-10.4
		C83.9,120.1,81.6,120.9,79.2,121.7z"/>
	<path class="st4" d="M75,56c10-8.8,18.5-13.1,25.3-13.9l3.6-9.2l-46,12.5L72,58.5C73,57.7,74,56.9,75,56z"/>
	<path class="st4" d="M57,48.6L59.5,66c3.3-1.6,6.7-3.4,10.1-5.7L57,48.6z"/>
	<path class="st4" d="M89.3,117.9l11.1,8.7l-3.2-12.5C94.7,115.5,92.1,116.7,89.3,117.9z"/>
	<path class="st4" d="M99.8,112.5l4,15.6c9.8-5.5,18.2-12.8,24.3-21.3L114.8,97C111.5,103.2,106.4,108.3,99.8,112.5z"/>
	<path class="st4" d="M56.6,67.3l-2.9-20.1L23.8,67.1c-2.2,2.8-4,5.8-5.5,9.2l17.1,8.1C37.9,75.3,46.6,72,56.6,67.3z"/>
	<path class="st4" d="M45.9,137l6.7-15.6c-5-2-9.3-5.2-12.4-9.5l-18.4,9.2C27.3,129,35.7,134.4,45.9,137z"/>
	<path class="st4" d="M34.9,87.5l-17.6-8.3c-0.7,2.2-1.3,4.4-1.7,6.9c-2.2,13.3-0.3,24.2,4.6,32.6l18.4-9.2
		C35.1,103.6,33.6,96.1,34.9,87.5z"/>
	<path class="st4" d="M120.3,74.3c-0.4,4.5-1.1,9.4-2.4,14.5c-0.5,1.9-1.1,3.7-1.8,5.5l13.7,10c4.6-7.1,7.6-15,8.5-23.4
		c0.1-1.3,0.2-2.7,0.3-4l-0.2-4.6L120.3,74.3z"/>
	<path class="st4" d="M75,138c4.8-0.8,9.6-2,14.2-3.5L64.5,139C67.9,138.9,71.4,138.6,75,138z"/>
	<path class="st4" d="M103.6,42c11.5,0.6,17.5,12.4,16.9,29.2l16.4-1.8l-30.1-35.8L103.6,42z"/>
	<path class="st5" d="M95,93.8l4.8,18.7c6.7-4.2,11.7-9.3,15-15.5l-13.2-9.7C99.7,89.6,97.5,91.8,95,93.8z"/>
	<path class="st5" d="M54,85.5c1-1.9,2.7-2.7,4.8-3.1l-2.2-15.2c-10,4.7-18.7,8-21.2,17.1L52,92.3C52.1,90,52.8,87.7,54,85.5z"/>
	<path class="st5" d="M52.1,95.7l-17.3-8.2c-1.2,8.7,0.3,16.1,3.7,21.9l16.1-8C53.3,99.7,52.5,97.8,52.1,95.7z"/>
	<path class="st5" d="M57.1,103.5L40.2,112c3.1,4.2,7.4,7.4,12.4,9.5l7.1-16.5C58.7,104.5,57.9,104.1,57.1,103.5z"/>
	<path class="st5" d="M62.6,105.7l-7.2,16.7c7.1,2.1,15.3,2,23.8-0.7c2.4-0.8,4.6-1.6,6.8-2.4L69.2,106
		C66.7,106.2,64.5,106.1,62.6,105.7z"/>
	<path class="st5" d="M76.5,76.4c1.5-1.8,3-3.7,4.6-5.4L69.5,60.3c-3.3,2.3-6.7,4.1-10.1,5.7l2.3,16.1
		C66.6,81.7,72.3,81.8,76.5,76.4z"/>
	<path class="st5" d="M92.4,95.8c-6.3,4.6-13.6,8.2-19.2,9.6l16,12.6c2.8-1.2,5.4-2.5,7.8-3.9L92.4,95.8z"/>
	<path class="st5" d="M93,61.2l7.3-19.1C93.5,42.9,85,47.2,75,56c-1,0.9-2,1.7-3,2.4l11.2,10.4C86.5,65.6,89.9,62.9,93,61.2z"/>
	<path class="st5" d="M103.6,42l-6.8,17.7c5.2-1.2,9.1,2,9.3,13.1l14.5-1.6C121.1,54.4,115.1,42.6,103.6,42z"/>
	<path class="st5" d="M105.9,77.7c-0.1,2.3-1.1,4.8-2.6,7.1l12.8,9.4c0.7-1.7,1.4-3.6,1.8-5.5c1.3-5.1,2.1-10,2.4-14.5L106,75.9
		C106,76.5,106,77.1,105.9,77.7z"/>
	<path class="st6" d="M95,93.8c2.5-2,4.8-4.2,6.6-6.5l-10.2-7.4L95,93.8z"/>
	<path class="st6" d="M52.1,95.7c0.3,2.1,1.2,4.1,2.6,5.7l4.6-2.3L52.1,95.7z"/>
	<path class="st6" d="M58.8,82.5c-2.1,0.4-3.8,1.2-4.8,3.1c-1.2,2.1-1.9,4.5-2,6.7l8.9,4.2L58.8,82.5z"/>
	<path class="st6" d="M83.2,68.9l5,4.7L93,61.2C89.9,62.9,86.5,65.6,83.2,68.9z"/>
	<path class="st6" d="M103.3,84.9c1.5-2.4,2.5-4.8,2.6-7.1c0-0.6,0.1-1.2,0.1-1.8l-13,1.4L103.3,84.9z"/>
	<path class="st6" d="M65.1,99l8.1,6.4c5.6-1.4,12.9-5,19.2-9.6L88,78.9L65.1,99z"/>
	<path class="st6" d="M96.8,59.7l-5.7,14.8l14.9-1.7C105.9,61.7,102,58.5,96.8,59.7z"/>
	<path class="st6" d="M86.7,76.1L81.2,71c-1.6,1.7-3.2,3.6-4.6,5.4c-4.2,5.3-9.9,5.3-14.7,5.7l2,14L86.7,76.1z"/>
	<path class="st6" d="M69.2,106l-5-3.9l-1.6,3.7C64.5,106.1,66.7,106.2,69.2,106z"/>
	<path class="st6" d="M57.1,103.5c0.8,0.5,1.6,1,2.6,1.4l1.5-3.4L57.1,103.5z"/>
	<path class="st7" d="M9.5,11.8l1.8-2.4l1.9,1.5c1.1-0.6,2.3-1.2,3.4-1.8H8.9v4.1c0.5-0.3,1-0.5,1.4-0.8L9.5,11.8z"/>
	<path class="st7" d="M165.9,161.2l2.8,5.8l-2.7,1.3l-1.1-2.2h-4.8c-1.2,1-2.4,2-3.6,3h12.3v-11.6c-1,1.1-2,2.1-3,3.2V161.2z"/>
	<path class="st7" d="M165.9,126.1v4l2.4,1.7l-1.7,2.5l-0.6-0.4v27c1-1,2-2.1,3-3.2v-36.8C168,122.6,167,124.4,165.9,126.1z"/>
	<path class="st7" d="M11.9,13.7l-1.6-1.2c-0.5,0.3-1,0.5-1.4,0.8v20.1c1-0.6,2-1.3,3-1.9V13.7z"/>
	<path class="st7" d="M14.8,12.2h29.6c1.6-1,3.3-2,4.9-3H16.6c-1.1,0.6-2.3,1.2-3.4,1.8L14.8,12.2z"/>
	<path class="st7" d="M164.2,12.2l2.1-2.5l2.3,1.9l-2.7,3.2v12.4c1.1,2.5,2.1,5,3,7.6V9.2h-12.8c0.7,1,1.3,2,2,3H164.2z"/>
	<path class="st7" d="M125,166.2l-0.7,2l-1.4-0.5l-1.3,0.7l-1.2-2.2h-3.9c-2.6,1.1-5.3,2.1-8,3h48.3c1.2-1,2.4-2,3.6-3H125z"/>
	<path class="st7" d="M14.9,166.2l-3.6,2.7l-1.8-2.4l2.4-1.8v-3c-1-0.6-2-1.3-3-2v9.5h17.8c-2.3-0.9-4.5-1.9-6.7-3H14.9z"/>
	<path class="st7" d="M75.1,166.2l-2.1,2.5l-1.2-1l-1.1,1l-2.5-2.5H20c2.2,1.1,4.4,2.1,6.7,3h81.7c2.7-0.9,5.4-1.9,8-3H75.1z"/>
	<path class="st7" d="M76.4,12.2c1.5-1.1,3-2.1,4.4-3H49.4c-1.6,1-3.3,2-4.9,3H76.4z"/>
	<path class="st7" d="M135.5,12.2h22.6c-0.6-1-1.3-2-2-3h-23.7C133.5,10.1,134.5,11.1,135.5,12.2z"/>
	<path class="st7" d="M11.9,138.5c-1-1-2-2-3-3.1v24.4c1,0.7,2,1.3,3,2V138.5z"/>
	<path class="st7" d="M11.9,52.8V31.5c-1,0.6-2,1.3-3,1.9v22.2C9.8,54.7,10.8,53.7,11.9,52.8z"/>
	<path class="st7" d="M165.9,48l2.2,1.3l-0.7,1.3l0.9,1.2l-2.4,1.7V90l1.7,1.4l-1,1.2l1,1.1l-1.8,1.6v30.7c1.1-1.7,2.1-3.5,3-5.3
		v-86c-0.9-2.6-1.9-5.2-3-7.6V48z"/>
	<path class="st7" d="M9.8,126.5l0.6-1.4l-0.7-1.3l2.2-1.1V76.6l-2.1-1l0.6-1.4L9.5,73l2.3-1.5V52.8c-1,0.9-2,1.8-3,2.8v79.8
		c1,1.1,2,2.1,3,3.1v-11L9.8,126.5z"/>
	<path class="st7" d="M82.2,9.7l1.1,1l1-1.1l3,2.6h33.2l2.2-2.5l1.1,1l1.2-0.9l1.9,2.4h8.6c-1-1.1-2-2.1-3.1-3H80.8
		c-1.5,0.9-3,1.9-4.4,3h3.8L82.2,9.7z"/>
	<path class="st7" d="M27.7,22l-12.9-9.8h-2.9v1.5l13,9.9C25.8,23.1,26.7,22.5,27.7,22z"/>
	<path class="st7" d="M27.7,22c-0.9,0.5-1.9,1.1-2.8,1.6L39.7,35c1-0.5,1.9-1.1,2.9-1.6L27.7,22z"/>
	<path class="st7" d="M54.6,42.6l-12.1-9.2c-1,0.5-1.9,1.1-2.9,1.6l12.6,9.6l1.6-1L54.6,42.6z"/>
	<path class="st7" d="M11.3,9.5l-1.8,2.4l0.9,0.7c1-0.5,1.9-1,2.9-1.5L11.3,9.5z"/>
	<path class="st7" d="M14.8,12.2L13.2,11c-1,0.5-1.9,1-2.9,1.5l1.6,1.2v-1.5H14.8z"/>
	<path class="st7" d="M13.4,74l10.4-6.9c7-8.9,17.6-15,29.7-21.4l0-0.3l-1.2-0.9L11.9,71.4v1.8L13.4,74z"/>
	<path class="st7" d="M53.5,45.7c-12.1,6.4-22.7,12.5-29.7,21.4l29.9-19.9L53.5,45.7z"/>
	<polygon class="st7" points="11.9,73.3 11.9,71.4 9.5,73 10.4,74.2 11,72.9 	"/>
	<polygon class="st7" points="53.4,44.9 54.9,44.7 53.7,43.7 53.9,43.5 52.3,44.6 53.5,45.5 	"/>
	<path class="st7" d="M18.3,76.3L13.4,74l-1.5,1v1.6l5.4,2.5C17.6,78.2,17.9,77.2,18.3,76.3z"/>
	<path class="st7" d="M35,86.3c0.1-0.6,0.3-1.3,0.4-1.8l-17.1-8.1c-0.4,0.9-0.7,1.9-1.1,2.8l17.6,8.3C34.9,87.1,35,86.7,35,86.3z"/>
	<path class="st7" d="M52,92.3l-16.5-7.8c-0.2,0.6-0.3,1.2-0.4,1.8c-0.1,0.4-0.1,0.8-0.2,1.2l17.3,8.2C51.9,94.6,51.9,93.4,52,92.3z
		"/>
	<path class="st7" d="M61.1,98.2l-0.2-1.7L52,92.3c-0.1,1.1,0,2.3,0.1,3.4l7.2,3.4L61.1,98.2z"/>
	<polygon class="st7" points="11.2,75.5 10.4,74.2 9.7,75.6 11.9,76.6 11.9,75 	"/>
	<polygon class="st7" points="11.9,75 13.4,74 11.9,73.3 	"/>
	<polygon class="st7" points="11.9,75 11.9,73.3 11,72.9 10.4,74.2 11.2,75.5 	"/>
	<polygon class="st7" points="65.1,99 88,78.9 87.6,77 86.7,76.1 63.8,96.1 64.1,98.2 	"/>
	<path class="st7" d="M72,58.5L57.9,45.4l-1.3,0.4l0.4,2.9l12.6,11.6C70.4,59.7,71.2,59.1,72,58.5z"/>
	<path class="st7" d="M72,58.5c-0.8,0.6-1.7,1.2-2.5,1.8L81.2,71c0.7-0.7,1.4-1.5,2.1-2.2L72,58.5z"/>
	<path class="st7" d="M88.3,73.6l-5-4.7c-0.7,0.7-1.4,1.4-2.1,2.2l5.5,5.1l1-0.9L88.3,73.6z"/>
	<polygon class="st7" points="87.4,76.5 88.9,76.2 87.5,75.6 87.6,75.3 86.7,76.1 87.6,77 	"/>
	<path class="st7" d="M13.9,125.1l7.9-3.9c-0.6-0.8-1.1-1.7-1.6-2.5l-8.3,4.1v1.4L13.9,125.1z"/>
	<path class="st7" d="M38.6,109.4l-18.4,9.2c0.5,0.9,1,1.7,1.6,2.5l18.4-9.2C39.6,111.2,39.1,110.3,38.6,109.4z"/>
	<path class="st7" d="M54.7,101.4l-16.1,8c0.5,0.9,1.1,1.7,1.7,2.5l16.9-8.4C56.2,102.9,55.4,102.2,54.7,101.4z"/>
	<path class="st7" d="M61.7,100.2l-2.4-1.1l-4.6,2.3c0.7,0.8,1.5,1.5,2.4,2.2l4.1-2L61.7,100.2z"/>
	<polygon class="st7" points="11.9,124.2 11.9,122.7 9.7,123.8 10.4,125.2 11,123.8 	"/>
	<polygon class="st7" points="61.3,99.3 61.1,98.2 59.3,99.1 61.7,100.2 62.2,99.1 	"/>
	<polygon class="st7" points="45.1,138.9 13.9,125.1 11.9,126.1 11.9,127.5 42.9,141.2 44.7,140 	"/>
	<polygon class="st7" points="11,126.5 10.4,125.2 9.8,126.5 11.9,127.5 11.9,126.1 	"/>
	<polygon class="st7" points="11.9,126.1 13.9,125.1 11.9,124.2 	"/>
	<polygon class="st7" points="11.9,126.1 11.9,124.2 11,123.8 10.4,125.2 11,126.5 	"/>
	<path class="st7" d="M14.1,163l-2.2,1.7v1.5h3l2.1-1.6C16,164.1,15,163.6,14.1,163z"/>
	<path class="st7" d="M14.1,163c0.9,0.6,1.9,1.1,2.9,1.6l16.5-12.4c-1.1-0.4-2.1-0.9-3.2-1.4L14.1,163z"/>
	<path class="st7" d="M45,142.2l-2.1-0.9l-12.7,9.6c1,0.5,2.1,0.9,3.2,1.4l12.3-9.3L45,142.2z"/>
	<polygon class="st7" points="11.9,164.7 9.5,166.5 11.3,168.9 14.9,166.2 11.9,166.2 	"/>
	<polygon class="st7" points="44.8,142 45.9,140.9 44.5,140.3 44.7,140 42.9,141.2 45,142.2 	"/>
	<path class="st7" d="M48.4,138.9l0.5-1.2c-1-0.2-2-0.4-3-0.7l-0.8,1.9l1,0.4L48.4,138.9z"/>
	<path class="st7" d="M52.6,121.4L45.9,137c1,0.3,2,0.5,3,0.7l6.6-15.4C54.5,122.1,53.5,121.8,52.6,121.4z"/>
	<path class="st7" d="M62.6,105.7c-1.1-0.2-2-0.5-2.9-0.8l-7.1,16.5c0.9,0.4,1.9,0.7,2.8,1L62.6,105.7z"/>
	<path class="st7" d="M62.6,100.8l-1.4,0.7l-1.5,3.4c0.9,0.4,1.9,0.6,2.9,0.8l1.6-3.7L62.6,100.8z"/>
	<polygon class="st7" points="61.7,100.2 61.2,101.5 62.6,100.8 61.9,100.3 	"/>
	<polygon class="st7" points="61.8,100.2 62.7,99 62.2,99.1 61.7,100.2 61.9,100.3 	"/>
	<polygon class="st7" points="46.1,139.3 45.1,138.9 44.7,140 45,139.7 45.9,140.9 45.6,139.4 	"/>
	<polygon class="st7" points="44.7,140 44.5,140.3 45.9,140.9 45,139.7 	"/>
	<path class="st7" d="M100.3,126.6l-11.1-8.7c-1,0.4-2.1,0.9-3.2,1.3l13.3,10.4l1.7-0.3L100.3,126.6z"/>
	<path class="st7" d="M71,105.8c-0.6,0.1-1.2,0.2-1.8,0.2l16.9,13.3c1.1-0.4,2.2-0.9,3.2-1.3l-16-12.6
		C72.5,105.5,71.7,105.7,71,105.8z"/>
	<path class="st7" d="M64.6,99.4l0.6,0.3l-1,2.4l5,3.9c0.6-0.1,1.2-0.1,1.8-0.2c0.7-0.1,1.4-0.2,2.2-0.4L65.1,99L64.6,99.4z"/>
	<polygon class="st7" points="64.2,98.8 63.6,98.9 64.6,99.4 65.1,99 64.1,98.2 	"/>
	<polygon class="st7" points="64.6,99.4 63.7,100.2 62.7,99 63.4,100.4 62.6,100.8 64.2,102.1 65.2,99.6 	"/>
	<polygon class="st7" points="62.7,99 63.7,100.2 64.6,99.4 63.6,98.9 	"/>
	<polygon class="st7" points="62.7,99 62.1,100.4 61.9,100.3 62.6,100.8 63.4,100.4 	"/>
	<polygon class="st7" points="61.9,100.3 62.1,100.4 62.7,99 61.8,100.2 	"/>
	<path class="st7" d="M71.8,165.5l-7.2-7.5c-1.4,0-2.9,0-4.3-0.1l8.1,8.3h2.8L71.8,165.5z"/>
	<path class="st7" d="M46.5,142.3l-0.8,0.6l14.5,15c1.4,0.1,2.8,0.1,4.3,0.1l-15.6-16.1L46.5,142.3z"/>
	<polygon class="st7" points="71.2,166.2 68.3,166.2 70.8,168.7 71.9,167.7 70.7,166.7 	"/>
	<polygon class="st7" points="45.9,140.9 45.3,142.3 45,142.2 45.7,142.9 46.5,142.3 46.1,142.4 	"/>
	<polygon class="st7" points="45.9,140.9 44.8,142 45,142.2 45.3,142.3 	"/>
	<path class="st7" d="M78.8,157.1l-7,8.4l0.7,0.7h2.6l8.2-9.8C81.8,156.6,80.3,156.9,78.8,157.1z"/>
	<path class="st7" d="M102.1,132.2l-3,0.5l-20.3,24.3c1.5-0.2,3-0.4,4.5-0.7l19.3-23.2L102.1,132.2z"/>
	<polygon class="st7" points="73,166.6 71.9,167.7 73,168.7 75.1,166.2 72.5,166.2 	"/>
	<polygon class="st7" points="72.5,166.2 71.8,165.5 71.2,166.2 	"/>
	<polygon class="st7" points="72.5,166.2 71.2,166.2 70.7,166.7 71.9,167.7 73,166.6 	"/>
	<path class="st7" d="M51.9,138.3l-3.5,0.6l-0.7,1.6l1.3,1.3l15.6-2.8C60.1,139.2,55.9,138.9,51.9,138.3z"/>
	<path class="st7" d="M99.9,130.1c-3.4,1.7-7,3.2-10.7,4.4l9.9-1.8l1.7-2L99.9,130.1z"/>
	<path class="st7" d="M99.3,129.7l-47.5,8.6c4,0.6,8.3,0.9,12.7,0.7l24.6-4.5c3.7-1.2,7.3-2.7,10.7-4.4L99.3,129.7z"/>
	<polygon class="st7" points="47.6,140.6 48.4,138.9 46.1,139.3 46.5,139.5 45.9,140.9 47,139.9 	"/>
	<polygon class="st7" points="46.1,139.3 45.6,139.4 45.9,140.9 46.5,139.5 	"/>
	<path class="st7" d="M101.1,129.5c-0.4,0.2-0.8,0.4-1.2,0.6l0.8,0.6l0.5-0.6L101.1,129.5z"/>
	<path class="st7" d="M101,129.3l-1.7,0.3l0.6,0.5c0.4-0.2,0.8-0.4,1.2-0.6L101,129.3z"/>
	<polygon class="st7" points="47.3,141.5 45.9,140.9 46.8,142.1 46.5,142.3 48.9,141.9 47.6,140.6 	"/>
	<polygon class="st7" points="45.9,140.9 46.1,142.4 46.5,142.3 46.8,142.1 	"/>
	<polygon class="st7" points="47.6,140.6 47,139.9 45.9,140.9 47.3,141.5 	"/>
	<polygon class="st7" points="100.7,130.8 99.1,132.7 102.1,132.2 101.7,131.5 	"/>
	<polygon class="st7" points="101.2,130.2 100.7,130.8 101.7,131.5 101.6,131.2 102.9,130.5 101.4,130.9 	"/>
	<path class="st7" d="M122.6,164l-0.2-0.4c-0.9,0.4-1.8,0.8-2.7,1.3l0.7,1.4h1.4L122.6,164z"/>
	<path class="st7" d="M110.5,147.9l9.1,16.9c0.9-0.4,1.8-0.8,2.7-1.3l-9.1-16.9C112.3,147.1,111.4,147.5,110.5,147.9z"/>
	<path class="st7" d="M105,131.3l-1.2,0.5l-1.2,1.4l7.9,14.7c0.9-0.4,1.8-0.9,2.7-1.3L105,131.3z"/>
	<polygon class="st7" points="121.8,166.2 120.4,166.2 121.6,168.4 122.9,167.7 121.5,167.2 	"/>
	<polygon class="st7" points="102.9,130.5 103.1,132 102.1,132.2 102.6,133.2 103.8,131.8 103.4,131.9 	"/>
	<polygon class="st7" points="102.9,130.5 101.9,131.7 101.7,131.5 102.1,132.2 103.1,132 	"/>
	<polygon class="st7" points="101.7,131.5 101.9,131.7 102.9,130.5 101.6,131.2 	"/>
	<path class="st7" d="M102.8,128.6l0.3,0.2l0.8-0.3l-0.1-0.4C103.5,128.3,103.2,128.4,102.8,128.6z"/>
	<path class="st7" d="M97.1,114.1l3.2,12.5l2.5,2c0.3-0.2,0.6-0.3,1-0.5l-4-15.6C98.9,113,98,113.6,97.1,114.1z"/>
	<path class="st7" d="M92.4,95.8l4.7,18.3c0.9-0.5,1.8-1.1,2.7-1.6L95,93.8C94.1,94.5,93.3,95.1,92.4,95.8z"/>
	<path class="st7" d="M91.4,79.9L89,78.1L88,78.9l4.3,16.9c0.9-0.6,1.7-1.3,2.6-2L91.4,79.9z"/>
	<polygon class="st7" points="88.9,76.2 87.9,77.3 87.6,77 88,78.9 89,78.1 88,77.4 	"/>
	<polygon class="st7" points="88.9,76.2 87.4,76.5 87.6,77 87.9,77.3 	"/>
	<path class="st7" d="M102.4,129.1l0.7-0.3l-0.3-0.2c-0.4,0.2-0.8,0.4-1.2,0.6L102.4,129.1z"/>
	<path class="st7" d="M101,129.3l0.6-0.1c0.4-0.2,0.8-0.4,1.2-0.6l-2.5-2L101,129.3z"/>
	<path class="st7" d="M102.4,129.1l-0.8,0.1c-0.2,0.1-0.4,0.2-0.6,0.3l0.2,0.6l0.5-0.6l1.2,1l-0.6-1.4L102.4,129.1z"/>
	<path class="st7" d="M101.1,129.5c0.2-0.1,0.4-0.2,0.6-0.3l-0.6,0.1L101.1,129.5z"/>
	<polygon class="st7" points="101.2,130.2 101.4,130.9 102.9,130.5 101.7,129.6 	"/>
	<path class="st7" d="M122.8,163.4l-0.2,0.6l1.2,2.2h1.2l1.7-4.8C125.4,162.1,124.1,162.7,122.8,163.4z"/>
	<path class="st7" d="M133.6,132.3l-10.8,31c1.3-0.6,2.6-1.3,3.8-1.9l12-34.4C137.1,128.9,135.4,130.6,133.6,132.3z"/>
	<path class="st7" d="M140.6,116.6l-1.8,0.7l-5.2,15c1.8-1.7,3.4-3.5,5-5.3l3-8.5L140.6,116.6z"/>
	<polygon class="st7" points="124.2,167 122.9,167.7 124.3,168.2 125,166.2 123.8,166.2 	"/>
	<polygon class="st7" points="123.8,166.2 122.6,164 121.8,166.2 	"/>
	<polygon class="st7" points="123.8,166.2 121.8,166.2 121.5,167.2 122.9,167.7 124.2,167 	"/>
	<polygon class="st7" points="139.6,115.2 138.3,114.3 103.9,128.5 104.3,130 105,131.3 138.9,117.3 	"/>
	<polygon class="st7" points="104.3,130.2 102.9,130.5 104,131.5 103.8,131.8 105,131.3 104.3,130 	"/>
	<polygon class="st7" points="102.9,130.5 103.4,131.9 103.8,131.8 104,131.5 	"/>
	<polygon class="st7" points="103.8,129.4 102.9,130.5 104.2,129.8 104.3,130 103.9,128.5 103.1,128.8 	"/>
	<polygon class="st7" points="103.1,128.8 102.4,129.1 102.6,129.1 102.9,130.5 103.8,129.4 	"/>
	<polygon class="st7" points="102.4,129.1 102.3,129.1 102.9,130.5 102.6,129.1 	"/>
	<polygon class="st7" points="102.9,130.5 104.3,130.2 104.3,130 104.2,129.8 	"/>
	<polygon class="st7" points="139.6,115.2 138.9,117.3 140.6,116.6 140.2,115.6 	"/>
	<path class="st7" d="M128.1,106.8l10.2,7.5l1.5-0.6l-0.1-2l-10-7.3C129.3,105.1,128.7,106,128.1,106.8z"/>
	<path class="st7" d="M128.1,106.8c0.6-0.8,1.1-1.6,1.7-2.5l-13.7-10c-0.4,0.9-0.8,1.9-1.3,2.8L128.1,106.8z"/>
	<path class="st7" d="M101.5,87.3l13.2,9.7c0.5-0.9,0.9-1.8,1.3-2.8l-12.8-9.4C102.8,85.7,102.2,86.5,101.5,87.3z"/>
	<path class="st7" d="M90.8,77.6l0.6,2.3l10.2,7.4c0.6-0.8,1.2-1.6,1.8-2.4L93,77.3L90.8,77.6z"/>
	<polygon class="st7" points="90.1,76.6 88.9,76.2 89.9,77.3 89,78.1 91.4,79.9 90.8,77.6 90.2,77.6 	"/>
	<polygon class="st7" points="88.9,76.2 88,77.4 89,78.1 89.9,77.3 	"/>
	<polygon class="st7" points="139.8,113.7 138.3,114.3 139.6,115.2 139.9,114.4 	"/>
	<polygon class="st7" points="139.9,114.4 139.6,115.2 140.2,115.6 140,115.3 141.4,114.7 139.9,114.7 	"/>
	<path class="st7" d="M103.6,42l3.2-8.4l-1-1.2l-1.9,0.5l-3.6,9.2C101.5,42,102.6,42,103.6,42z"/>
	<path class="st7" d="M96.8,59.7l6.8-17.7c-1-0.1-2.1,0-3.3,0.1L93,61.2C94.3,60.5,95.6,60,96.8,59.7z"/>
	<path class="st7" d="M88.3,73.6l1.6,1.4l0,0l0-0.3l1.3-0.1l5.7-14.8c-1.2,0.3-2.5,0.8-3.8,1.5L88.3,73.6z"/>
	<polygon class="st7" points="89.8,75 88.3,73.6 87.6,75.3 87.9,75 88.9,76.2 89.8,74.9 	"/>
	<polygon class="st7" points="87.6,75.3 87.5,75.6 88.9,76.2 87.9,75 	"/>
	<polygon class="st7" points="89.9,75 89.8,75 89.9,75 	"/>
	<polygon class="st7" points="89.9,75.1 88.9,76.2 90,75.9 	"/>
	<polygon class="st7" points="89.9,75 89.8,75 89.8,74.9 88.9,76.2 89.9,75.1 	"/>
	<polygon class="st7" points="90,75.9 88.9,76.2 90.1,76.6 	"/>
	<path class="st7" d="M62.4,41.1L59.1,42l-1.3,1.5C59.3,42.7,60.9,41.9,62.4,41.1z"/>
	<path class="st7" d="M57.9,45.4l46-12.5l0.7-1.8l-1.3-1.2L62.4,41.1c-1.5,0.8-3.1,1.6-4.6,2.4l-0.9,1.1L57.9,45.4z"/>
	<polygon class="st7" points="56.9,44.5 56.5,45.1 56.5,45.8 57.9,45.4 	"/>
	<polygon class="st7" points="105.3,31.7 104.6,31.1 103.9,32.9 105.8,32.4 	"/>
	<path class="st7" d="M83.5,12.8l13.9,12.1c1.3-0.3,2.6-0.4,3.9-0.6l-14-12.2h-3.3L83.5,12.8z"/>
	<path class="st7" d="M105.5,29.3l0.7-0.8l-4.9-4.2c-1.3,0.1-2.6,0.3-3.9,0.6l5.8,5.1L105.5,29.3z"/>
	<polygon class="st7" points="84.1,12.2 87.4,12.2 84.4,9.5 83.4,10.7 84.5,11.6 	"/>
	<polygon class="st7" points="105,30.1 106.4,30.7 105.2,29.7 105.5,29.3 103.3,29.9 104.6,31.1 	"/>
	<polygon class="st7" points="105.2,31.6 106.4,30.7 105,30.1 104.6,31.1 105.3,31.7 	"/>
	<polygon class="st7" points="59.1,42 83.5,12.8 82.8,12.2 80.2,12.2 54.6,42.6 55.2,43 	"/>
	<polygon class="st7" points="82.4,11.8 83.4,10.7 82.2,9.7 80.2,12.2 82.8,12.2 	"/>
	<polygon class="st7" points="54,43.4 54.9,44.7 54.5,43.2 55.2,43 54.6,42.6 53.9,43.5 	"/>
	<polygon class="st7" points="53.9,43.5 53.7,43.7 54.9,44.7 54,43.4 	"/>
	<path class="st7" d="M56.5,44.2c0.4-0.2,0.9-0.5,1.3-0.7l1.3-1.5L55.2,43l0.6,0.4l-0.9,1.2l1-1.1L56.5,44.2z"/>
	<path class="st7" d="M57.8,43.5c-0.4,0.2-0.9,0.5-1.3,0.7l0.4,0.4L57.8,43.5z"/>
	<polygon class="st7" points="55.2,43 54.5,43.2 54.9,44.7 55.8,43.5 	"/>
	<path class="st7" d="M56.5,44.2l-0.6-0.6l-1,1.1l1-0.1C56.1,44.4,56.3,44.3,56.5,44.2z"/>
	<path class="st7" d="M56.5,45.1l0.5-0.6l-0.4-0.4c-0.2,0.1-0.5,0.2-0.7,0.4l0.5-0.1L56.5,45.1z"/>
	<polygon class="st7" points="82.8,12.2 83.5,12.8 84.1,12.2 	"/>
	<polygon class="st7" points="82.8,12.2 84.1,12.2 84.5,11.6 83.4,10.7 82.4,11.8 	"/>
	<path class="st7" d="M113.2,25.1L123.8,13l-0.7-0.9h-2.6l-10.8,12.3C111,24.6,112.1,24.8,113.2,25.1z"/>
	<path class="st7" d="M107,29.3l2.2,0.4l4-4.5c-1.1-0.3-2.2-0.5-3.4-0.7l-3.6,4.1L107,29.3z"/>
	<polygon class="st7" points="122.7,11.6 123.9,10.7 122.7,9.7 120.6,12.2 123.1,12.2 	"/>
	<polygon class="st7" points="106.4,30.7 106.6,29.2 107,29.3 106.2,28.5 105.5,29.3 106,29.2 	"/>
	<polygon class="st7" points="106.4,30.7 106,29.2 105.5,29.3 105.2,29.7 	"/>
	<path class="st7" d="M138.7,68.4l0.2-1.3l-0.3-0.3C138.6,67.3,138.7,67.9,138.7,68.4z"/>
	<path class="st7" d="M106.9,33.6l30.1,35.8l1.6-0.2l0.1-0.8c0-0.6,0-1.1-0.1-1.7l-28.4-33.9l-2.9-0.5L106.9,33.6z"/>
	<polygon class="st7" points="106.4,32.2 105.8,32.4 106.9,33.6 107.3,32.4 	"/>
	<polygon class="st7" points="105.3,31.7 105.8,32.4 106.4,32.2 106.1,32.1 106.4,30.7 105.4,31.8 	"/>
	<polygon class="st7" points="105.3,31.7 105.4,31.8 106.4,30.7 105.2,31.6 	"/>
	<path class="st7" d="M120.5,71.2c0,1-0.1,2-0.2,3l18.1-2l0-1.1l-1.5-1.7L120.5,71.2z"/>
	<path class="st7" d="M106.1,72.9c0,0.9,0,2,0,3l14.3-1.6c0.1-1,0.1-2,0.2-3L106.1,72.9z"/>
	<path class="st7" d="M90.7,75.6l2.3,1.7l13-1.4c0-1.1,0.1-2.1,0-3l-14.9,1.7L90.7,75.6z"/>
	<polygon class="st7" points="90.8,77.6 93,77.3 90.7,75.6 90.5,76.2 	"/>
	<polygon class="st7" points="90.3,76.7 90.1,76.6 90.2,77.6 90.8,77.6 90.5,76.2 	"/>
	<polygon class="st7" points="89.9,75 90.7,75.6 91.1,74.5 89.8,74.7 	"/>
	<polygon class="st7" points="89.9,75 89.9,75.1 89.9,75.1 90,75.9 90.3,75.8 90.5,76.2 90.7,75.6 89.9,75 	"/>
	<polygon class="st7" points="89.9,75.1 89.9,75 89.9,75.1 	"/>
	<polygon class="st7" points="90.3,76.7 90.5,76.2 90.3,75.8 90,75.9 90.1,76.6 	"/>
	<path class="st7" d="M138.7,70.6l1.1,0l-1.1-0.2C138.7,70.5,138.7,70.6,138.7,70.6z"/>
	<path class="st7" d="M138.7,70.6c0-0.1,0-0.1,0-0.2l-0.3-0.1l0.2-1.1l-1.6,0.2l1.5,1.7l0-0.5L138.7,70.6z"/>
	<path class="st7" d="M139.4,72.2l-0.7,0.1c0,1.6-0.1,3.1-0.2,4.7l1.2,34.7l2.1,1.6l0.9-0.8l-1.3-38.5L139.4,72.2z"/>
	<path class="st7" d="M138.6,76.9c0.1-1.6,0.1-3.1,0.2-4.7l-0.3,0L138.6,76.9z"/>
	<polygon class="st7" points="140.8,113.3 141.4,114.7 141.9,114 141.5,113.5 141.9,113.2 139.8,111.6 139.8,113.7 	"/>
	<polygon class="st7" points="139.8,113.7 139.9,114.4 140,114.2 141.4,114.7 140.8,113.3 	"/>
	<polygon class="st7" points="139.9,114.4 139.9,114.7 141.4,114.7 140,114.2 	"/>
	<path class="st7" d="M139.9,70.6l-1.1,0.9c0,0.2,0,0.5,0,0.7l0.7-0.1l-0.5-0.4L139.9,70.6z"/>
	<path class="st7" d="M138.7,71.5L138.7,71.5l-0.4-0.4l0,1.1l0.3,0C138.7,72,138.7,71.8,138.7,71.5z"/>
	<path class="st7" d="M138.7,71.5l1.1-0.9l-1.1,0C138.7,70.9,138.7,71.2,138.7,71.5z"/>
	<path class="st7" d="M138.4,70.7l0,0.5l0.3,0.4l0,0c0-0.3,0-0.6,0-0.9L138.4,70.7z"/>
	<path class="st7" d="M155,85l9.4,7.7l1.3-1.2l0.2,0.3V90l-10.8-8.9C155.1,82.4,155.1,83.7,155,85z"/>
	<path class="st7" d="M141.4,71.3l0.1,2.5L155,85c0-1.3,0.1-2.6,0.1-3.8l-12.8-10.5L141.4,71.3z"/>
	<polygon class="st7" points="166.7,92.6 167.6,91.5 165.9,90 165.9,91.8 	"/>
	<polygon class="st7" points="139.9,70.6 140,72.1 139.4,72.2 141.5,73.9 141.4,71.3 140.8,71.8 	"/>
	<polygon class="st7" points="139.9,70.6 138.9,71.8 139.4,72.2 140,72.1 	"/>
	<path class="st7" d="M162.4,131.3l3.5,2.5v-3.7l-1.8-1.3C163.6,129.7,163,130.5,162.4,131.3z"/>
	<path class="st7" d="M145.3,119.3l17.1,12.1c0.6-0.8,1.2-1.6,1.7-2.5l-17.9-12.6c-0.4,0.8-0.9,1.5-1.3,2.2L145.3,119.3z"/>
	<path class="st7" d="M143.6,115.7l1.4,2.8c0.5-0.7,0.9-1.5,1.3-2.2l-1.9-1.3L143.6,115.7z"/>
	<polygon class="st7" points="166.5,134.3 168.3,131.8 165.9,130.1 165.9,133.8 	"/>
	<polygon class="st7" points="142.1,114.3 141.9,114 141.4,114.7 	"/>
	<polygon class="st7" points="141.4,114.7 141.9,114 141.9,114 	"/>
	<path class="st7" d="M163.5,163.2l1.5,3h0.9v-5l-0.1-0.3C165,161.7,164.3,162.4,163.5,163.2z"/>
	<path class="st7" d="M163.5,163.2c0.8-0.7,1.5-1.5,2.3-2.2l-10.4-21.1c-0.7,0.8-1.5,1.5-2.2,2.3L163.5,163.2z"/>
	<path class="st7" d="M144.7,118.9c-0.5,0.9-1.1,1.7-1.7,2.5l10.2,20.8c0.8-0.8,1.5-1.5,2.2-2.3l-10.1-20.6L144.7,118.9z"/>
	<path class="st7" d="M141.6,118.5l1.4,2.9c0.6-0.8,1.2-1.7,1.7-2.5l-2.6-1.8L141.6,118.5z"/>
	<polygon class="st7" points="165,166.2 166.1,168.4 168.8,167 165.9,161.2 165.9,166.2 	"/>
	<polygon class="st7" points="140.6,116.6 141.6,118.5 142.1,117 141.2,116.4 	"/>
	<polygon class="st7" points="140.2,115.6 140.6,116.6 141.2,116.4 140.5,115.9 141.4,114.7 140.5,115.9 	"/>
	<polygon class="st7" points="140.2,115.6 140.5,115.9 141.4,114.7 140,115.3 	"/>
	<path class="st7" d="M145.3,119.3l-0.4-0.8c-0.1,0.1-0.1,0.2-0.2,0.4L145.3,119.3z"/>
	<path class="st7" d="M142.4,114.6l-1.1,0l1.4,0.5l-0.7,1.9l2.6,1.8c0.1-0.1,0.1-0.2,0.2-0.4l-1.4-2.8l-0.1,0.1L142.4,114.6z"/>
	<polygon class="st7" points="141.2,116.4 142.1,117 142.8,115.2 141.4,114.7 141.9,116 	"/>
	<polygon class="st7" points="141.2,116.4 141.9,116 141.4,114.7 140.5,115.9 	"/>
	<polygon class="st7" points="142.4,114.6 142.1,114.3 141.4,114.7 	"/>
	<path class="st7" d="M165.7,93.8l-1.3-1.1l-12.8,11.6c-0.7,2.2-1.5,4.3-2.5,6.3l16.7-15.2v-1.8L165.7,93.8z"/>
	<path class="st7" d="M142.8,112.3l0.1,1.5l1.5,1.1l4.8-4.4c0.9-2,1.7-4.1,2.5-6.3L142.8,112.3z"/>
	<polygon class="st7" points="165.9,95.4 167.7,93.7 166.7,92.6 165.9,93.6 	"/>
	<polygon class="st7" points="142.3,113.4 142.8,113.9 142.8,112.3 141.9,113.2 	"/>
	<polygon class="st7" points="141.9,114 142.2,113.4 142.3,113.4 141.9,113.2 141.5,113.5 	"/>
	<polygon class="st7" points="165.9,93.6 165.9,91.8 165.7,91.5 164.4,92.7 165.7,93.8 	"/>
	<polygon class="st7" points="165.9,93.6 166.7,92.6 165.9,91.8 	"/>
	<polygon class="st7" points="143.6,115.7 144.4,114.9 142.8,113.9 142.9,114.3 	"/>
	<polygon class="st7" points="142.3,113.4 141.9,114 142.1,114.3 142.7,114 142.9,114.3 142.8,113.9 142.3,113.4 	"/>
	<polygon class="st7" points="141.9,114 141.9,114 142.3,113.4 142.3,113.4 142.2,113.4 	"/>
	<polygon class="st7" points="142.9,114.6 142.4,114.6 143.5,115.8 143.6,115.7 142.9,114.3 	"/>
	<polygon class="st7" points="142.9,114.6 142.9,114.3 142.7,114 142.1,114.3 142.4,114.6 	"/>
	<path class="st7" d="M164.7,50.8L154,58.5c0.1,1.1,0.3,2.3,0.4,3.4l11.6-8.4v-2.1L164.7,50.8z"/>
	<path class="st7" d="M141.5,70l0.8,0.7l12-8.7c-0.1-1.2-0.2-2.3-0.4-3.4l-12.1,8.7L141.5,70z"/>
	<polygon class="st7" points="165.9,51.5 165.9,53.6 168.3,51.8 167.4,50.6 166.7,51.9 	"/>
	<polygon class="st7" points="141.4,71.3 142.3,70.7 141.5,70 141.4,70.7 	"/>
	<polygon class="st7" points="141.4,70.8 139.9,70.6 140.8,71.8 141.4,71.3 141.4,70.7 	"/>
	<path class="st7" d="M162.2,19.3l3.8-4.5v-2.6h-1.7l-3.6,4.3C161.1,17.4,161.7,18.3,162.2,19.3z"/>
	<path class="st7" d="M162.2,19.3c-0.5-1-1-1.9-1.5-2.8l-13.1,15.7c0.4,1.1,0.8,2.1,1.2,3.3L162.2,19.3z"/>
	<path class="st7" d="M147.2,37.2l1.6-1.9c-0.4-1.1-0.8-2.2-1.2-3.3l-2.6,3.2l1,1.2L147.2,37.2z"/>
	<polygon class="st7" points="165.9,14.8 168.6,11.6 166.3,9.7 164.2,12.2 165.9,12.2 	"/>
	<polygon class="st7" points="123.8,13 141.3,35.5 144.3,36 144.9,35.3 126.9,12.2 124.6,12.2 	"/>
	<polygon class="st7" points="124.6,12.2 126.9,12.2 125.1,9.7 123.9,10.7 125,11.6 	"/>
	<polygon class="st7" points="123.1,12.2 123.8,13 124.6,12.2 	"/>
	<polygon class="st7" points="123.1,12.2 124.6,12.2 125,11.6 123.9,10.7 122.7,11.6 	"/>
	<polygon class="st7" points="145.1,36.2 144.9,37.7 145.6,36.4 145.9,36.5 144.9,35.3 144.3,36 	"/>
	<path class="st7" d="M151,42.9l13.6,7.9l1.3-0.9V48l-16-9.2C150.3,40.1,150.7,41.5,151,42.9z"/>
	<path class="st7" d="M146.3,38.3l-0.3,1.8l5,2.9c-0.4-1.4-0.7-2.8-1.2-4.1l-2.7-1.5L146.3,38.3z"/>
	<polygon class="st7" points="166.5,49.4 167.4,50.6 168.2,49.3 165.9,48 165.9,49.9 	"/>
	<polygon class="st7" points="165.9,49.9 164.7,50.8 165.9,51.5 	"/>
	<polygon class="st7" points="165.9,49.9 165.9,51.5 166.7,51.9 167.4,50.6 166.5,49.4 	"/>
	<polygon class="st7" points="146.3,38.3 147.2,37.2 145.9,36.5 146.1,36.7 144.9,37.7 146.4,37.9 	"/>
	<polygon class="st7" points="145.9,36.5 145.6,36.4 144.9,37.7 146.1,36.7 	"/>
	<polygon class="st7" points="143.2,38.9 138.9,67.1 140.1,68.6 141.9,67.3 146,40.1 144.4,39.1 	"/>
	<path class="st7" d="M138.7,69.2l0.6-0.1l0.8-0.6l-1.2-1.5l-0.2,1.3C138.7,68.7,138.7,69,138.7,69.2z"/>
	<path class="st7" d="M138.7,69.2c0-0.3,0-0.5,0-0.8l-0.1,0.8L138.7,69.2z"/>
	<path class="st7" d="M139.3,69.2l-0.6,0.1c0,0.4,0,0.8,0,1.2l1.1,0.2l-0.9-1.2L139.3,69.2z"/>
	<path class="st7" d="M138.4,70.4l0.3,0.1c0-0.4,0-0.8,0-1.2l-0.1,0L138.4,70.4z"/>
	<polygon class="st7" points="140.9,69.5 141.5,70 141.9,67.3 140.1,68.6 	"/>
	<polygon class="st7" points="139.7,69.1 139.9,70.6 140.8,69.4 140.9,69.5 140.1,68.6 139.3,69.2 	"/>
	<polygon class="st7" points="139.3,69.2 139,69.4 139.9,70.6 139.7,69.1 	"/>
	<polygon class="st7" points="141,69.6 139.9,70.6 141.4,70.5 141.4,70.7 141.5,70 140.9,69.5 	"/>
	<polygon class="st7" points="139.9,70.6 141,69.6 140.9,69.5 140.8,69.4 	"/>
	<polygon class="st7" points="141.4,70.7 141.4,70.5 139.9,70.6 141.4,70.8 	"/>
	<polygon class="st7" points="144.4,39.1 146,40.1 146.3,38.3 146,38.6 144.9,37.7 144.6,39.1 	"/>
	<polygon class="st7" points="146.3,38.3 146.4,37.9 144.9,37.7 146,38.6 	"/>
	<path class="st7" d="M129.1,36.3l14.1,2.6l0.1-0.8l-2-2.6L126,32.7C127.1,33.8,128.1,35,129.1,36.3z"/>
	<path class="st7" d="M110.2,32.9l18.9,3.4c-0.9-1.3-2-2.5-3-3.6l-16.8-3l-0.9,1L110.2,32.9z"/>
	<polygon class="st7" points="106.4,30.7 107.5,29.7 108.4,30.7 109.2,29.7 107,29.3 107.4,29.5 	"/>
	<polygon class="st7" points="106.4,30.7 107.4,29.5 107,29.3 106.6,29.2 	"/>
	<polygon class="st7" points="107.3,32.4 110.2,32.9 108.4,30.7 107.7,31.4 	"/>
	<polygon class="st7" points="106.4,32.2 107.3,32.4 107.7,31.4 107.5,31.6 106.4,30.7 106.8,32.1 	"/>
	<polygon class="st7" points="106.4,32.2 106.8,32.1 106.4,30.7 106.1,32.1 	"/>
	<polygon class="st7" points="107.7,31.4 108.4,30.7 107.5,29.7 106.4,30.7 107.8,31.2 	"/>
	<polygon class="st7" points="107.7,31.4 107.8,31.2 106.4,30.7 107.5,31.6 	"/>
	<polygon class="st7" points="143.4,37.4 144.9,37.7 143.7,36.7 144.3,36 141.3,35.5 143.3,38.1 	"/>
	<polygon class="st7" points="144.9,37.7 145.1,36.2 144.3,36 143.7,36.7 	"/>
	<polygon class="st7" points="143.3,38.1 143.2,38.9 144.4,39.1 144.1,39 144.9,37.7 143.7,38.6 	"/>
	<polygon class="st7" points="143.3,38.1 143.7,38.6 144.9,37.7 143.4,37.4 	"/>
	<polygon class="st7" points="144.4,39.1 144.6,39.1 144.9,37.7 144.1,39 	"/>
	<path class="st7" d="M57,48.6l-2.2-2.1l-1,0.7l2.9,20.1c0.9-0.4,1.9-0.9,2.8-1.3L57,48.6z"/>
	<path class="st7" d="M61.8,82.1L59.5,66c-1,0.5-1.9,0.9-2.8,1.3l2.2,15.2C59.8,82.3,60.8,82.2,61.8,82.1z"/>
	<path class="st7" d="M62.5,97.3l1.3-1.2l-2-14c-1,0.1-2.1,0.2-3,0.4l2,14L62.5,97.3z"/>
	<path class="st7" d="M53.5,45.5l0,0.3c0.1,0,0.1-0.1,0.2-0.1L53.5,45.5z"/>
	<path class="st7" d="M54.7,46.6l-0.8-0.8l-0.2-0.2c-0.1,0-0.1,0.1-0.2,0.1l0.2,1.5L54.7,46.6z"/>
	<path class="st7" d="M54.2,45.4l0.7-0.7l-1.5,0.2l0.1,0.6l0.2,0.2C53.9,45.6,54,45.5,54.2,45.4z"/>
	<path class="st7" d="M54.2,45.4c-0.2,0.1-0.3,0.2-0.5,0.3l0.2,0.2l-0.1,0L54.2,45.4z"/>
	<polygon class="st7" points="62.5,97.3 60.9,96.5 61.1,98.2 61.9,97.8 	"/>
	<polygon class="st7" points="62.9,98.6 63,98.7 63.7,97.9 64.1,98.2 63.8,96.1 62.5,97.3 63.4,97.7 	"/>
	<polygon class="st7" points="62.1,97.7 62.5,98.5 62.5,98.5 62.9,98.6 63.4,97.7 62.5,97.3 61.9,97.8 	"/>
	<polygon class="st7" points="56.5,45.8 55.5,46 54.7,46.6 57,48.6 	"/>
	<path class="st7" d="M55,45l-0.1-0.3l-0.5,0.6C54.6,45.2,54.8,45.1,55,45z"/>
	<path class="st7" d="M55.3,46.1L55,45c-0.2,0.1-0.4,0.2-0.6,0.3L54,45.8l-0.1,0l0.8,0.8l0.8-0.5L55.3,46.1z"/>
	<path class="st7" d="M54.4,45.3l0.5-0.6l-0.7,0.7C54.3,45.3,54.3,45.3,54.4,45.3z"/>
	<path class="st7" d="M54.4,45.3c-0.1,0-0.1,0.1-0.2,0.1l-0.4,0.4l0.1,0l0.1,0L54.4,45.3z"/>
	<polygon class="st7" points="62.2,99.1 62.4,98.6 61.8,97.9 61.9,97.8 61.1,98.2 61.3,99.3 	"/>
	<polygon class="st7" points="62.1,97.7 61.9,97.8 61.8,97.9 62.4,98.6 62.5,98.5 	"/>
	<polygon class="st7" points="62.9,98.6 62.7,99 63,98.7 	"/>
	<polygon class="st7" points="62.5,98.5 62.5,98.5 62.7,99 62.9,98.6 	"/>
	<polygon class="st7" points="62.2,99.1 62.7,99 62.4,98.6 	"/>
	<polygon class="st7" points="62.4,98.6 62.7,99 62.5,98.5 	"/>
	<polygon class="st7" points="64.2,98.8 64.1,98.2 63.7,97.9 63,98.7 63.6,98.9 	"/>
	<polygon class="st7" points="63,98.7 62.7,99 63.6,98.9 	"/>
	<path class="st7" d="M55.1,44.9l-0.3-0.2L55.1,44.9C55.1,44.9,55.1,44.9,55.1,44.9z"/>
	<path class="st7" d="M55.5,46l1-0.3l-0.1-0.6L56,45.6l-0.9-0.7c0,0-0.1,0-0.1,0l0.6,1L55.5,46z"/>
	<path class="st7" d="M55.1,44.9l-0.2-0.3L55.1,44.9C55,45,55,44.9,55.1,44.9z"/>
	<path class="st7" d="M55.5,46l0.2-0.1l-0.6-1c0,0-0.1,0-0.1,0l0.3,1.1L55.5,46z"/>
	<path class="st7" d="M55.8,44.5l-1,0.1l0.3,0.2C55.4,44.8,55.6,44.6,55.8,44.5z"/>
	<path class="st7" d="M56.5,45.1l-0.1-0.7l-0.5,0.1c-0.2,0.1-0.5,0.2-0.7,0.4l0.9,0.7L56.5,45.1z"/>
</g>
<rect x="-2.2" y="-2.2" class="st8" width="182.8" height="182.8"/>
</svg>
