<?xml version="1.0" encoding="utf-8"?>
<!-- Generator: Adobe Illustrator 19.2.1, SVG Export Plug-In . SVG Version: 6.00 Build 0)  -->
<svg version="1.1" id="Слой_1" xmlns="http://www.w3.org/2000/svg" xmlns:xlink="http://www.w3.org/1999/xlink" x="0px" y="0px"
	 viewBox="0 0 292 291.7" style="enable-background:new 0 0 292 291.7;" xml:space="preserve">
<style type="text/css">
	.st0{fill:#3499CD;}
	.st1{fill:#FFFFFF;}
	.st2{fill:#54C3EC;}
</style>
<g>
	<rect x="4.9" y="4.9" class="st0" width="283.5" height="283.5"/>
	<path class="st1" d="M290.4,290.4H2.9V2.9h287.5V290.4z M6.9,286.4h279.5V6.9H6.9V286.4z"/>
</g>
<g>
	<circle class="st2" cx="46.4" cy="73" r="22.3"/>
	<path class="st1" d="M46.4,97.3c-13.4,0-24.3-10.9-24.3-24.3s10.9-24.3,24.3-24.3S70.7,59.7,70.7,73S59.8,97.3,46.4,97.3z
		 M46.4,52.8c-11.2,0-20.3,9.1-20.3,20.3s9.1,20.3,20.3,20.3S66.7,84.2,66.7,73S57.6,52.8,46.4,52.8z"/>
</g>
<g>
	<circle class="st2" cx="46.4" cy="146" r="22.3"/>
	<path class="st1" d="M46.4,170.3c-13.4,0-24.3-10.9-24.3-24.3s10.9-24.3,24.3-24.3s24.3,10.9,24.3,24.3S59.8,170.3,46.4,170.3z
		 M46.4,125.7c-11.2,0-20.3,9.1-20.3,20.3s9.1,20.3,20.3,20.3s20.3-9.1,20.3-20.3S57.6,125.7,46.4,125.7z"/>
</g>
<g>
	<circle class="st2" cx="46.4" cy="219.3" r="22.3"/>
	<path class="st1" d="M46.4,243.6c-13.4,0-24.3-10.9-24.3-24.3S33.1,195,46.4,195s24.3,10.9,24.3,24.3S59.8,243.6,46.4,243.6z
		 M46.4,199c-11.2,0-20.3,9.1-20.3,20.3s9.1,20.3,20.3,20.3s20.3-9.1,20.3-20.3S57.6,199,46.4,199z"/>
</g>
<g>
	<circle class="st2" cx="117.7" cy="41.2" r="22.3"/>
	<path class="st1" d="M117.7,65.5c-13.4,0-24.3-10.9-24.3-24.3S104.4,17,117.7,17S142,27.8,142,41.2S131.1,65.5,117.7,65.5z
		 M117.7,21c-11.2,0-20.3,9.1-20.3,20.3s9.1,20.3,20.3,20.3S138,52.4,138,41.2S128.9,21,117.7,21z"/>
</g>
<g>
	<circle class="st2" cx="118.9" cy="104.4" r="22.3"/>
	<path class="st1" d="M118.9,128.7c-13.4,0-24.3-10.9-24.3-24.3s10.9-24.3,24.3-24.3s24.3,10.9,24.3,24.3S132.3,128.7,118.9,128.7z
		 M118.9,84.1c-11.2,0-20.3,9.1-20.3,20.3s9.1,20.3,20.3,20.3s20.3-9.1,20.3-20.3S130.1,84.1,118.9,84.1z"/>
</g>
<g>
	<circle class="st2" cx="117.7" cy="185.7" r="22.3"/>
	<path class="st1" d="M117.7,210c-13.4,0-24.3-10.9-24.3-24.3s10.9-24.3,24.3-24.3s24.3,10.9,24.3,24.3S131.1,210,117.7,210z
		 M117.7,165.4c-11.2,0-20.3,9.1-20.3,20.3s9.1,20.3,20.3,20.3s20.3-9.1,20.3-20.3S128.9,165.4,117.7,165.4z"/>
</g>
<g>
	<circle class="st2" cx="117.7" cy="251.3" r="22.3"/>
	<path class="st1" d="M117.7,275.5c-13.4,0-24.3-10.9-24.3-24.3c0-13.4,10.9-24.3,24.3-24.3s24.3,10.9,24.3,24.3
		C142,264.6,131.1,275.5,117.7,275.5z M117.7,231c-11.2,0-20.3,9.1-20.3,20.3c0,11.2,9.1,20.3,20.3,20.3s20.3-9.1,20.3-20.3
		C138,240.1,128.9,231,117.7,231z"/>
</g>
<g>
	<circle class="st2" cx="184.5" cy="72.4" r="22.3"/>
	<path class="st1" d="M184.5,96.6c-13.4,0-24.3-10.9-24.3-24.3s10.9-24.3,24.3-24.3s24.3,10.9,24.3,24.3S197.9,96.6,184.5,96.6z
		 M184.5,52.1c-11.2,0-20.3,9.1-20.3,20.3s9.1,20.3,20.3,20.3s20.3-9.1,20.3-20.3S195.7,52.1,184.5,52.1z"/>
</g>
<g>
	<circle class="st2" cx="184.5" cy="145.3" r="22.3"/>
	<path class="st1" d="M184.5,169.6c-13.4,0-24.3-10.9-24.3-24.3s10.9-24.3,24.3-24.3s24.3,10.9,24.3,24.3S197.9,169.6,184.5,169.6z
		 M184.5,125.1c-11.2,0-20.3,9.1-20.3,20.3s9.1,20.3,20.3,20.3s20.3-9.1,20.3-20.3S195.7,125.1,184.5,125.1z"/>
</g>
<g>
	<circle class="st2" cx="184.5" cy="218.6" r="22.3"/>
	<path class="st1" d="M184.5,242.9c-13.4,0-24.3-10.9-24.3-24.3s10.9-24.3,24.3-24.3s24.3,10.9,24.3,24.3S197.9,242.9,184.5,242.9z
		 M184.5,198.4c-11.2,0-20.3,9.1-20.3,20.3s9.1,20.3,20.3,20.3s20.3-9.1,20.3-20.3S195.7,198.4,184.5,198.4z"/>
</g>
<g>
	<circle class="st2" cx="250" cy="102.2" r="22.3"/>
	<path class="st1" d="M250,126.4c-13.4,0-24.3-10.9-24.3-24.3s10.9-24.3,24.3-24.3c13.4,0,24.3,10.9,24.3,24.3
		S263.4,126.4,250,126.4z M250,81.9c-11.2,0-20.3,9.1-20.3,20.3s9.1,20.3,20.3,20.3c11.2,0,20.3-9.1,20.3-20.3S261.2,81.9,250,81.9z
		"/>
</g>
<g>
	<circle class="st2" cx="250" cy="187.4" r="22.3"/>
	<path class="st1" d="M250,211.7c-13.4,0-24.3-10.9-24.3-24.3s10.9-24.3,24.3-24.3c13.4,0,24.3,10.9,24.3,24.3
		S263.4,211.7,250,211.7z M250,167.2c-11.2,0-20.3,9.1-20.3,20.3s9.1,20.3,20.3,20.3c11.2,0,20.3-9.1,20.3-20.3
		S261.2,167.2,250,167.2z"/>
</g>
<rect x="61.3" y="55.1" transform="matrix(0.6436 -0.7654 0.7654 0.6436 -14.4704 83.193)" class="st1" width="41.6" height="4"/>
<rect x="28" y="91.6" transform="matrix(0.2473 -0.9689 0.9689 0.2473 -28.9165 149.9982)" class="st1" width="108.2" height="4"/>
<rect x="80.1" y="214.4" transform="matrix(0.7667 -0.642 0.642 0.7667 -131.9043 107.5979)" class="st1" width="4" height="41.7"/>
<rect x="80.1" y="144.3" transform="matrix(0.9692 -0.2464 0.2464 0.9692 -46.4119 26.3504)" class="st1" width="4" height="108.6"/>
<rect x="80.1" y="141.1" transform="matrix(0.7618 -0.6478 0.6478 0.7618 -85.2207 91.6946)" class="st1" width="4" height="41.3"/>
<rect x="57.6" y="123.2" transform="matrix(0.5581 -0.8298 0.8298 0.5581 -67.3468 123.9496)" class="st1" width="50.1" height="4"/>
<rect x="149.1" y="37.7" transform="matrix(0.8141 -0.5808 0.5808 0.8141 -4.8872 98.3155)" class="st1" width="4" height="38.3"/>
<rect x="132.6" y="86.4" transform="matrix(0.5484 -0.8362 0.8362 0.5484 -5.3909 166.7823)" class="st1" width="38.3" height="4"/>
<rect x="149.7" y="101.9" transform="matrix(0.8896 -0.4567 0.4567 0.8896 -40.2757 83.0597)" class="st1" width="4" height="46"/>
<rect x="129.9" y="163.5" transform="matrix(0.4377 -0.8991 0.8991 0.4377 -63.1267 230.0744)" class="st1" width="44.9" height="4"/>
<rect x="150.4" y="183" transform="matrix(0.8586 -0.5127 0.5127 0.8586 -82.0889 106.7075)" class="st1" width="4" height="38.3"/>
<rect x="131.4" y="232.9" transform="matrix(0.5627 -0.8266 0.8266 0.5627 -128.1361 227.6397)" class="st1" width="39.5" height="4"/>
<rect x="100.2" y="194.5" transform="matrix(0.19 -0.9818 0.9818 0.19 -69.5703 308.7239)" class="st1" width="104.3" height="4"/>
<rect x="149.1" y="40" transform="matrix(0.978 -0.2087 0.2087 0.978 -16.1406 33.5972)" class="st1" width="4" height="106.4"/>
<rect x="80.1" y="71.4" transform="matrix(0.9687 -0.2482 0.2482 0.9687 -28.5245 24.2968)" class="st1" width="4" height="107.8"/>
<rect x="23.6" y="159.9" transform="matrix(0.2366 -0.9716 0.9716 0.2366 -94.1247 203.9124)" class="st1" width="118.3" height="4"/>
<rect x="215.2" y="69" transform="matrix(0.8174 -0.5761 0.5761 0.8174 -10.5972 141.0989)" class="st1" width="4" height="36.5"/>
<rect x="198.5" y="201" transform="matrix(0.5588 -0.8293 0.8293 0.5588 -72.5292 269.7368)" class="st1" width="37.6" height="4"/>
<rect x="215.2" y="142.8" transform="matrix(0.8949 -0.4462 0.4462 0.8949 -51.4152 114.4119)" class="st1" width="4" height="47.1"/>
<rect x="193.2" y="121.7" transform="matrix(0.4375 -0.8992 0.8992 0.4375 10.9258 264.9493)" class="st1" width="48" height="4"/>
<rect x="215.2" y="71.4" transform="matrix(0.9838 -0.1795 0.1795 0.9838 -19.7935 41.1151)" class="st1" width="4" height="117"/>
<rect x="158.1" y="158.4" transform="matrix(0.1775 -0.9841 0.9841 0.1775 20.841 345.7171)" class="st1" width="118.3" height="4"/>
<rect x="57.3" y="196.4" transform="matrix(0.5389 -0.8424 0.8424 0.5389 -129.2679 160.6299)" class="st1" width="49.7" height="4"/>
<rect x="80.7" y="67.7" transform="matrix(0.7461 -0.6658 0.6658 0.7461 -38.079 77.5826)" class="st1" width="4" height="42"/>
</svg>
